<svg width="24" height="24" viewBox="0 0 24 24" fill="none" xmlns="http://www.w3.org/2000/svg">
<rect width="24" height="24" rx="12" fill="white"/>
<path d="M12.0542 6.46484C10.2087 6.46484 8.7002 7.9734 8.7002 9.81883C8.7002 11.6643 10.2087 13.1728 12.0542 13.1728C13.8996 13.1728 15.4082 11.6643 15.4082 9.81883C15.4082 7.9734 13.8996 6.46484 12.0542 6.46484Z" fill="#7F7F80"/>
<path d="M17.8079 15.8549C17.7201 15.6352 17.6029 15.4301 17.4711 15.2397C16.7974 14.2438 15.7575 13.5847 14.5858 13.4236C14.4394 13.409 14.2782 13.4382 14.1611 13.5261C13.5459 13.9801 12.8136 14.2145 12.052 14.2145C11.2904 14.2145 10.5581 13.9801 9.94294 13.5261C9.82576 13.4382 9.66465 13.3943 9.5182 13.4236C8.3465 13.5847 7.29199 14.2438 6.63291 15.2397C6.5011 15.4301 6.38392 15.6498 6.29606 15.8549C6.25213 15.9428 6.26676 16.0453 6.31069 16.1332C6.42787 16.3382 6.57432 16.5433 6.70614 16.719C6.91117 16.9973 7.13088 17.2463 7.37987 17.4806C7.58491 17.6856 7.81924 17.876 8.05361 18.0665C9.21064 18.9306 10.602 19.3846 12.0374 19.3846C13.4727 19.3846 14.8641 18.9306 16.0211 18.0665C16.2555 17.8907 16.4898 17.6856 16.6949 17.4806C16.9292 17.2463 17.1635 16.9973 17.3686 16.719C17.515 16.5286 17.6469 16.3382 17.764 16.1332C17.8372 16.0453 17.8519 15.9427 17.8079 15.8549Z" fill="#7F7F80"/>
</svg>
