<svg width="1440" height="793" viewBox="0 0 1440 793" fill="none" xmlns="http://www.w3.org/2000/svg">
<path d="M-456 286.41C-690.5 1222.41 1377.71 861.356 1460 861.356C1542.29 861.356 1818 470.596 1818 389.41C1737.18 560.672 1362.88 138.805 1323 314.91C1290.34 459.115 1209.38 510.911 919.002 510.911C805.963 510.911 720.752 551.656 601.002 601.91C37.457 838.406 -456 219.453 -456 286.41Z" fill="#E5F1FF"/>
<path opacity="0.3" d="M-142.498 629.91C-463.498 1199.41 1436.71 930.41 1519 930.41C1577.02 930.41 1517.65 374.501 1482 23.4098C1467.08 -123.477 1683 469.856 1683 445.909C1611.68 597.046 1288.9 180.312 1250 389.91C1208.73 612.302 1036 638.41 935.5 629.91C835 621.41 747.502 560.91 637.002 597.41C526.502 633.91 383.002 764.884 -142.498 629.91Z" fill="#3882F3"/>
</svg>
