<svg width="24" height="18" viewBox="0 0 24 18" fill="none" xmlns="http://www.w3.org/2000/svg">
<path fill-rule="evenodd" clip-rule="evenodd" d="M2.43283 9.00013C2.53869 9.17325 2.67902 9.39389 2.85287 9.64865C3.2994 10.303 3.96067 11.1732 4.81918 12.0399C6.55387 13.7911 8.97916 15.4169 11.9822 15.4169C14.9852 15.4169 17.4105 13.7911 19.1452 12.0399C20.0037 11.1732 20.665 10.303 21.1115 9.64865C21.2854 9.39389 21.4257 9.17325 21.5316 9.00013C21.4257 8.827 21.2854 8.60636 21.1115 8.3516C20.665 7.69724 20.0037 6.82705 19.1452 5.96036C17.4105 4.20915 14.9852 2.58336 11.9822 2.58336C8.97916 2.58336 6.55387 4.20915 4.81918 5.96036C3.96067 6.82705 3.2994 7.69724 2.85287 8.3516C2.67902 8.60636 2.53869 8.827 2.43283 9.00013ZM22.6364 9.00013C23.5028 8.59017 23.5026 8.58986 23.5024 8.58953L23.5009 8.58658L23.4975 8.58032L23.4865 8.55996C23.4773 8.54295 23.4642 8.51916 23.4474 8.48902C23.4137 8.42876 23.3648 8.34308 23.3009 8.2356C23.1732 8.02078 22.9853 7.71816 22.7388 7.35695C22.247 6.63629 21.516 5.67312 20.5584 4.70645C18.661 2.79093 15.7591 0.75 11.9822 0.75C8.20525 0.75 5.30341 2.79093 3.40597 4.70645C2.44842 5.67312 1.71737 6.63629 1.2256 7.35695C0.979113 7.71816 0.791155 8.02078 0.663478 8.2356C0.599603 8.34308 0.550706 8.42876 0.517013 8.48902C0.500163 8.51916 0.487105 8.54295 0.477868 8.55996L0.466876 8.58032L0.463534 8.58658L0.462402 8.58872C0.462224 8.58905 0.461629 8.59017 1.32794 9.00013L0.461629 8.59017C0.32529 8.84824 0.32529 9.15201 0.461629 9.41008L1.32794 9.00013C0.461629 9.41008 0.461452 9.40974 0.461629 9.41008L0.463534 9.41367L0.466876 9.41993L0.477868 9.44029C0.487105 9.4573 0.500163 9.4811 0.517013 9.51123C0.550706 9.57149 0.599603 9.65718 0.663478 9.76465C0.791155 9.97947 0.979113 10.2821 1.2256 10.6433C1.71737 11.364 2.44842 12.3271 3.40597 13.2938C5.30341 15.2093 8.20525 17.2503 11.9822 17.2503C15.7591 17.2503 18.661 15.2093 20.5584 13.2938C21.516 12.3271 22.247 11.364 22.7388 10.6433C22.9853 10.2821 23.1732 9.97947 23.3009 9.76465C23.3648 9.65718 23.4137 9.57149 23.4474 9.51123C23.4642 9.4811 23.4773 9.4573 23.4865 9.44029L23.4975 9.41993L23.5009 9.41367L23.502 9.41154C23.5022 9.4112 23.5028 9.41008 22.6364 9.00013ZM22.6364 9.00013L23.5028 9.41008C23.6391 9.15201 23.6388 8.8476 23.5024 8.58953L22.6364 9.00013Z" fill="#3882F3"/>
<path fill-rule="evenodd" clip-rule="evenodd" d="M11.9797 7.16735C10.9099 7.16735 10.0426 7.98817 10.0426 9.00071C10.0426 10.0132 10.9099 10.8341 11.9797 10.8341C13.0496 10.8341 13.9169 10.0132 13.9169 9.00071C13.9169 7.98817 13.0496 7.16735 11.9797 7.16735ZM8.10547 9.00071C8.10547 6.97563 9.84004 5.33398 11.9797 5.33398C14.1194 5.33398 15.854 6.97563 15.854 9.00071C15.854 11.0258 14.1194 12.6674 11.9797 12.6674C9.84004 12.6674 8.10547 11.0258 8.10547 9.00071Z" fill="#3882F3"/>
</svg>
