<svg width="150" height="143" viewBox="0 0 150 143" fill="none" xmlns="http://www.w3.org/2000/svg">
<path d="M11.9995 2.12595L12.4925 21.4557L105.39 44.5795L105.855 25.5633L11.9995 2.12595Z" fill="#F5F5F5"/>
<path d="M121.396 29.5989L105.855 25.7178L105.391 44.7341L121.745 48.8051L121.396 29.5989Z" fill="#EBEBEB"/>
<path d="M128.927 68.0361L107.543 62.6958L106.904 88.8618L129.408 94.4637L128.927 68.0361Z" fill="#3AD29F"/>
<path d="M-21.601 30.4486L-20.9225 57.0459L106.902 88.8639L107.542 62.6979L-21.601 30.4486Z" fill="#3AD29F"/>
<path d="M128.926 68.0356L107.542 62.6954L106.902 88.8614L129.406 94.4633L128.926 68.0356Z" fill="#2B9E77"/>
<path d="M113.324 77.7772L116.527 81.8925L122.54 74.7988" stroke="white" stroke-width="1.7" stroke-miterlimit="10" stroke-linecap="round"/>
<g opacity="0.4">
<path opacity="0.4" d="M110.399 33.4163L115.369 40.6163M116.399 34.3377L110.564 39.6685" stroke="#333333" stroke-miterlimit="10" stroke-linecap="round"/>
</g>
<path d="M-7.80042 77.0011L-7.27893 97.4464L103.266 124.442L103.757 104.328L-7.80042 77.0011Z" fill="#F5F5F5"/>
<path d="M120.197 108.433L103.759 104.329L103.267 124.442L120.566 128.748L120.197 108.433Z" fill="#EBEBEB"/>
<g opacity="0.4">
<path opacity="0.4" d="M108.254 111.318L113.813 119.626M114.966 112.383L108.438 118.535" stroke="#333333" stroke-miterlimit="10" stroke-linecap="round"/>
</g>
<path opacity="0.3" d="M75.0357 75.1745C76.8822 75.1745 78.3791 72.1808 78.3791 68.4878C78.3791 64.7948 76.8822 61.8011 75.0357 61.8011C73.1892 61.8011 71.6924 64.7948 71.6924 68.4878C71.6924 72.1808 73.1892 75.1745 75.0357 75.1745Z" fill="black"/>
<path opacity="0.1" d="M75 117.8C88.5862 117.8 99.6 95.7727 99.6 68.6003C99.6 41.4279 88.5862 19.4003 75 19.4003C61.4138 19.4003 50.4 41.4279 50.4 68.6003C50.4 95.7727 61.4138 117.8 75 117.8Z" fill="#6C63FF"/>
<path opacity="0.1" d="M75.0345 99.2386C83.5283 99.2386 90.4139 85.4674 90.4139 68.4799C90.4139 51.4923 83.5283 37.7211 75.0345 37.7211C66.5407 37.7211 59.6552 51.4923 59.6552 68.4799C59.6552 85.4674 66.5407 99.2386 75.0345 99.2386Z" fill="white"/>
<g opacity="0.5">
<path opacity="0.5" d="M111.887 97.8276H111.441V100.354H111.887V97.8276Z" fill="#47E6B1"/>
<path opacity="0.5" d="M112.926 99.3145V98.8687H110.399V99.3145H112.926Z" fill="#47E6B1"/>
</g>
<path opacity="0.5" d="M19.0843 42.9196C18.9614 42.8661 18.8625 42.7693 18.8064 42.6476C18.7503 42.526 18.7409 42.3879 18.78 42.2597C18.7863 42.2401 18.7903 42.2198 18.7919 42.1992C18.7955 42.1405 18.78 42.0822 18.7479 42.0329C18.7157 41.9836 18.6686 41.946 18.6134 41.9257C18.5582 41.9053 18.4979 41.9033 18.4414 41.9199C18.385 41.9364 18.3354 41.9707 18.3 42.0177C18.2878 42.0344 18.2776 42.0524 18.2697 42.0715C18.2162 42.1943 18.1194 42.2932 17.9977 42.3493C17.876 42.4054 17.7379 42.4148 17.6098 42.3757C17.5901 42.3694 17.5698 42.3654 17.5492 42.3639C17.4905 42.3603 17.4322 42.3757 17.3829 42.4079C17.3337 42.44 17.2961 42.4872 17.2757 42.5424C17.2553 42.5976 17.2533 42.6579 17.2699 42.7143C17.2865 42.7707 17.3208 42.8203 17.3678 42.8558C17.3844 42.8679 17.4025 42.8781 17.4215 42.8861C17.5444 42.9396 17.6433 43.0364 17.6994 43.1581C17.7555 43.2797 17.7649 43.4178 17.7258 43.546C17.7194 43.5656 17.7155 43.5859 17.7139 43.6065C17.7103 43.6652 17.7257 43.7235 17.7579 43.7728C17.7901 43.8221 17.8372 43.8597 17.8924 43.88C17.9476 43.9004 18.0079 43.9024 18.0643 43.8859C18.1208 43.8693 18.1704 43.835 18.2058 43.788C18.218 43.7713 18.2281 43.7533 18.2361 43.7342C18.2896 43.6114 18.3864 43.5125 18.5081 43.4564C18.6298 43.4003 18.7678 43.3909 18.896 43.43C18.9156 43.4363 18.936 43.4403 18.9566 43.4419C19.0153 43.4454 19.0736 43.43 19.1228 43.3978C19.1721 43.3657 19.2097 43.3185 19.2301 43.2633C19.2504 43.2081 19.2525 43.1478 19.2359 43.0914C19.2193 43.035 19.185 42.9854 19.138 42.9499C19.1214 42.9378 19.1033 42.9276 19.0843 42.9196Z" fill="#4D8AF0"/>
<path opacity="0.5" d="M119.411 20.5808C119.288 20.5273 119.19 20.4305 119.133 20.3088C119.077 20.1871 119.068 20.049 119.107 19.9209C119.113 19.9012 119.117 19.8809 119.119 19.8603C119.122 19.8016 119.107 19.7433 119.075 19.694C119.043 19.6448 118.996 19.6072 118.94 19.5868C118.885 19.5664 118.825 19.5644 118.768 19.581C118.712 19.5976 118.662 19.6319 118.627 19.6789C118.615 19.6955 118.605 19.7136 118.597 19.7326C118.543 19.8555 118.446 19.9543 118.325 20.0104C118.203 20.0665 118.065 20.076 117.937 20.0369C117.917 20.0305 117.897 20.0265 117.876 20.025C117.818 20.0214 117.759 20.0368 117.71 20.069C117.661 20.1012 117.623 20.1483 117.603 20.2035C117.582 20.2587 117.58 20.319 117.597 20.3754C117.613 20.4319 117.648 20.4815 117.695 20.5169C117.711 20.5291 117.729 20.5392 117.749 20.5472C117.871 20.6007 117.97 20.6975 118.026 20.8192C118.082 20.9409 118.092 21.0789 118.053 21.2071C118.046 21.2267 118.042 21.2471 118.041 21.2677C118.037 21.3264 118.053 21.3847 118.085 21.4339C118.117 21.4832 118.164 21.5208 118.219 21.5412C118.275 21.5615 118.335 21.5636 118.391 21.547C118.448 21.5304 118.497 21.4961 118.533 21.4491C118.545 21.4324 118.555 21.4144 118.563 21.3954C118.617 21.2725 118.713 21.1736 118.835 21.1175C118.957 21.0614 119.095 21.052 119.223 21.0911C119.243 21.0974 119.263 21.1014 119.284 21.103C119.342 21.1066 119.401 21.0911 119.45 21.059C119.499 21.0268 119.537 20.9796 119.557 20.9245C119.577 20.8693 119.579 20.809 119.563 20.7525C119.546 20.6961 119.512 20.6465 119.465 20.6111C119.448 20.5989 119.43 20.5887 119.411 20.5808Z" fill="#4D8AF0"/>
<path opacity="0.5" d="M65.8826 51.3518C66.375 51.3518 66.7742 50.9527 66.7742 50.4603C66.7742 49.9679 66.375 49.5687 65.8826 49.5687C65.3903 49.5687 64.9911 49.9679 64.9911 50.4603C64.9911 50.9527 65.3903 51.3518 65.8826 51.3518Z" fill="#F55F44"/>
<path opacity="0.5" d="M144.788 75.421C145.28 75.421 145.679 75.0218 145.679 74.5294C145.679 74.037 145.28 73.6379 144.788 73.6379C144.295 73.6379 143.896 74.037 143.896 74.5294C143.896 75.0218 144.295 75.421 144.788 75.421Z" fill="#EB5757"/>
<path opacity="0.5" d="M101.096 14.3429C101.588 14.3429 101.987 13.9437 101.987 13.4513C101.987 12.9589 101.588 12.5598 101.096 12.5598C100.604 12.5598 100.204 12.9589 100.204 13.4513C100.204 13.9437 100.604 14.3429 101.096 14.3429Z" fill="#F55F44"/>
<path d="M34.6515 48.8638L41.344 49.1233L41.6777 40.5187L34.9852 40.2592L34.6515 48.8638Z" fill="#6C63FF"/>
<path d="M65.177 70.3921C65.177 70.3921 74.4451 65.964 74.2968 69.7883C74.1485 73.6125 64.9546 76.1286 64.9546 76.1286L65.177 70.3921Z" fill="#FFB9B9"/>
<path d="M60.0941 102.747C60.0941 102.747 64.4666 113.449 66.0822 121.172C67.6977 128.895 70.1581 139.523 66.9933 147.06C63.8285 154.598 54.8306 176.75 54.7379 179.14C54.6452 181.531 55.5086 183.958 53.5965 183.884C51.6843 183.81 41.2788 180.533 40.8563 179.081C40.4339 177.628 44.4065 173.952 44.4065 173.952L54.2161 143.214L43.9813 123.188L36.5989 153.063L35.153 190.35C35.153 190.35 28.0566 188.16 27.0264 190.035C27.0264 190.035 23.847 185.603 23.4431 183.672C23.0393 181.741 24.9446 144.951 24.9446 144.951C24.9446 144.951 18.4308 103.047 23.6892 103.251C28.9476 103.454 49.5441 90.848 60.0941 102.747Z" fill="#6C63FF"/>
<path d="M30.7498 32.1847C30.7498 32.1847 25.6543 40.1259 23.668 41.9639C21.6817 43.8019 27.2698 47.8487 27.2698 47.8487L37.2715 49.194C37.2715 49.194 37.1457 40.0928 37.6608 39.1553C38.1759 38.2177 30.7498 32.1847 30.7498 32.1847Z" fill="#FFB9B9"/>
<path d="M39.4467 42.5859C39.4467 42.5859 37.3863 46.336 35.4741 46.2619C33.562 46.1877 23.6715 41.9741 23.2491 40.5215C22.8266 39.0689 19.973 50.9271 19.973 50.9271L44.1742 93.5172L50.0775 89.4374L47.2172 64.4312L44.868 50.9349L39.4467 42.5859Z" fill="#6C63FF"/>
<path d="M22.3538 80.6924C23.3192 82.7119 23.9222 84.8178 23.8385 86.9738C23.8348 87.0694 23.8311 87.165 23.8226 87.2604C23.5936 91.6848 21.9637 96.8017 21.379 100.523C20.9547 103.192 21.0754 105.141 22.6376 105.599C26.4248 106.703 22.0854 107.492 36.7377 112.369C51.3899 117.246 53.947 113.037 53.984 112.081C54.0211 111.124 51.909 103.861 52.4056 103.402C52.9021 102.942 59.3537 109.416 61.3029 108.534C63.2521 107.652 61.5253 102.798 61.5253 102.798C61.5253 102.798 57.1342 92.5737 57.2269 90.1836C57.3196 87.7934 50.5754 76.5205 50.5754 76.5205L45.9883 46.6598C45.9883 46.6598 44.2245 42.7613 41.8528 42.1906C39.4812 41.6199 37.5134 42.9798 37.5134 42.9798L41.4821 51.7513L45.6693 67.2339L44.9688 72.9518C44.9688 72.9518 40.0997 62.7091 36.9017 58.755C33.7037 54.801 26.8854 45.4402 26.8854 45.4402C26.8854 45.4402 25.2936 40.0691 26.4953 38.464C27.6971 36.8541 21.4827 36.6131 18.833 43.213C17.4286 46.7109 15.1485 51.9271 13.7202 56.7837C12.4474 61.0862 11.8462 65.1084 13.1072 67.4074C15.0344 70.9196 19.8823 75.5361 22.3538 80.6924Z" fill="#575A89"/>
<path opacity="0.1" d="M13.1072 67.4109C15.0344 70.9231 19.8823 75.5396 22.3538 80.6959C22.9994 78.3702 23.7869 75.9639 23.7869 75.9639C23.7869 75.9639 26.8073 59.8034 17.8729 55.6269C16.3926 55.4837 14.912 55.8974 13.7202 56.7872C12.4474 61.0897 11.8462 65.1119 13.1072 67.4109Z" fill="black"/>
<path d="M48.5751 66.3903L56.1495 68.599L66.6663 69.0069L67.7482 78.1451L50.4648 79.3899C50.4648 79.3899 46.1479 67.2537 48.5751 66.3903Z" fill="#575A89"/>
<path d="M36.2246 97.1112C36.2246 97.1112 46.3577 98.7924 44.0449 101.842C41.7322 104.891 32.7555 101.685 32.7555 101.685L36.2246 97.1112Z" fill="#FFB9B9"/>
<path opacity="0.1" d="M23.8265 87.2628C23.5975 91.6872 21.9676 96.8041 21.3828 100.525C24.6108 103.58 27.6805 106.275 28.8373 106.32C31.2275 106.413 35.0703 106.083 36.4859 106.617C37.9015 107.15 38.7317 98.0862 38.7317 98.0862C38.7317 98.0862 37.8869 95.1809 34.1182 93.5985C31.5744 92.5279 26.6984 89.6243 23.8265 87.2628Z" fill="black"/>
<path d="M17.9865 52.7587C17.9865 52.7587 9.89696 51.4875 10.334 64.9096C10.771 78.3316 9.48127 86.8992 12.7348 89.4192C15.9884 91.9391 26.5569 103.36 28.9471 103.453C31.3372 103.546 35.1801 103.216 36.5956 103.75C38.0112 104.283 38.8414 95.2191 38.8414 95.2191C38.8414 95.2191 37.9966 92.3138 34.2279 90.7314C30.4592 89.149 21.5805 83.5384 21.6546 81.6262C21.7288 79.7141 23.9004 73.0957 23.9004 73.0957C23.9004 73.0957 26.9209 56.9352 17.9865 52.7587Z" fill="#575A89"/>
<path d="M37.8849 43.9456C43.6976 43.9456 48.4096 39.2335 48.4096 33.4209C48.4096 27.6083 43.6976 22.8962 37.8849 22.8962C32.0723 22.8962 27.3602 27.6083 27.3602 33.4209C27.3602 39.2335 32.0723 43.9456 37.8849 43.9456Z" fill="#FFB9B9"/>
<path d="M44.9732 18.3415C45.2271 18.5602 45.5311 18.7128 45.8581 18.7856C46.0223 18.8148 46.1915 18.778 46.3286 18.683C46.4657 18.588 46.5596 18.4427 46.5899 18.2787C46.8307 18.778 47.1024 19.3103 47.594 19.5665C48.0857 19.8227 48.8459 19.6079 48.9168 19.058C48.9885 19.4755 49.1732 19.8654 49.4508 20.1854C49.7559 20.4762 50.309 20.5496 50.5753 20.223C50.36 21.3996 50.4929 22.6096 50.4253 23.8038C50.3577 24.998 50.0392 26.2641 49.137 27.0494C47.8211 28.1946 45.8424 27.912 44.1115 27.695C43.8498 27.64 43.5782 27.6549 43.324 27.7381C42.6759 28.0142 42.7053 28.9164 42.6966 29.6208C42.6437 30.8567 42.1545 32.034 41.3159 32.9434C40.4773 33.8529 39.3435 34.4357 38.1159 34.5884C37.4289 34.6945 36.7279 34.5234 36.167 34.1128C35.6755 33.6962 35.4245 33.0173 34.8614 32.7044C33.9453 32.1954 32.8344 32.9377 32.1647 33.7437C31.4949 34.5497 30.8349 35.5412 29.7974 35.6887C28.4252 35.8839 27.3801 34.4855 26.8674 33.1978C26.1599 31.3931 25.821 29.465 25.8706 27.5273C25.9202 25.5895 26.3572 23.6813 27.1559 21.9151C30.021 15.6696 39.8083 14.6817 44.9732 18.3415Z" fill="#2F2E41"/>
</svg>
