<svg width="89" height="34" viewBox="0 0 89 34" fill="none" xmlns="http://www.w3.org/2000/svg">
<path d="M4.87711 16.5299L13.9355 25.5884H4.87711V16.5299Z" fill="#F71F37"/>
<path d="M3.99756 1.88233L76.4618 1.88232L87.3516 12.4822V26.6118L15.138 26.6118L3.99756 15.5322V1.88233Z" stroke="white" stroke-width="2"/>
<path d="M24.8418 20L22.2637 11.5991H22.1978C22.2905 13.3081 22.3369 14.4482 22.3369 15.0195V20H20.3081V9.29199H23.3989L25.9331 17.4805H25.9771L28.665 9.29199H31.7559V20H29.6392V14.9316C29.6392 14.6924 29.6416 14.4165 29.6465 14.104C29.6562 13.7915 29.6904 12.9614 29.749 11.6138H29.6831L26.9219 20H24.8418ZM45.4243 9.29199V16.2207C45.4243 17.0117 45.2461 17.7051 44.8896 18.3008C44.5381 18.8965 44.0278 19.353 43.3589 19.6704C42.6899 19.9878 41.8989 20.1465 40.9858 20.1465C39.6089 20.1465 38.5396 19.7949 37.7778 19.0918C37.0161 18.3838 36.6353 17.417 36.6353 16.1914V9.29199H38.8984V15.8472C38.8984 16.6724 39.0645 17.2778 39.3965 17.6636C39.7285 18.0493 40.2778 18.2422 41.0444 18.2422C41.7866 18.2422 42.3237 18.0493 42.6558 17.6636C42.9927 17.2729 43.1611 16.6626 43.1611 15.8325V9.29199H45.4243ZM59.0708 20H56.8076V15.3784H52.5669V20H50.2964V9.29199H52.5669V13.4888H56.8076V9.29199H59.0708V20ZM70.5859 20L69.8096 17.4512H65.9058L65.1294 20H62.6831L66.4624 9.24805H69.2383L73.0322 20H70.5859ZM69.2676 15.5469C68.5498 13.2373 68.1445 11.9312 68.0518 11.6284C67.9639 11.3257 67.9004 11.0864 67.8613 10.9106C67.7002 11.5356 67.2388 13.0811 66.4771 15.5469H69.2676Z" fill="white"/>
</svg>
