<svg width="386" height="377" viewBox="0 0 386 377" fill="none" xmlns="http://www.w3.org/2000/svg">
<path d="M330.426 297.122H258.709V297.314H330.426V297.122Z" fill="#E7E8E5"/>
<path d="M229.973 300.373H197.455V300.566H229.973V300.373Z" fill="#E7E8E5"/>
<path d="M324.71 97.025C327.5 91.4087 332.909 87.4101 338.466 87.4101C341.951 87.4101 344.854 88.9839 346.751 91.5465C348.543 90.0858 350.672 89.2103 352.825 89.2103C356.616 89.2103 359.403 91.9153 360.061 95.7315C361.82 94.8806 363.725 94.3593 365.645 94.2762C369.427 94.1037 372.42 95.6583 373.961 98.1854C374.673 97.7627 375.48 97.4971 376.299 97.4578C378.478 97.36 379.893 98.9285 379.468 100.96C379.44 101.088 379.407 101.211 379.374 101.334H318.004C317.859 99.3428 322.002 97.1251 324.71 97.025Z" fill="#E2E2E0"/>
<path d="M23.8382 121.362C30.1317 108.693 42.3329 99.6723 54.8671 99.6723C62.728 99.6723 69.2738 103.223 73.555 109.003C77.5967 105.708 82.3969 103.733 87.2556 103.733C95.8065 103.733 102.091 109.835 103.577 118.444C107.544 116.524 111.841 115.349 116.171 115.16C124.705 114.771 131.454 118.278 134.931 123.98C136.536 123.026 138.357 122.427 140.203 122.338C145.119 122.116 148.311 125.655 147.352 130.237C147.289 130.525 147.215 130.803 147.14 131.081H8.70945C8.38405 126.589 17.7278 121.588 23.8382 121.362Z" fill="#E2E2E0"/>
<path d="M45.838 167.639C46.1184 167.607 46.3887 167.592 46.6489 167.592C49.1577 164.544 52.294 162.598 55.244 162.598C57.373 162.598 59.0694 163.614 60.1817 165.334C64.7535 159.417 70.6599 155.572 76.1831 155.572C80.6391 155.572 84.0256 158.072 85.9205 162.152C88.5016 159.831 91.3975 158.44 94.1557 158.44C99.0021 158.44 102.013 162.739 102.067 168.803H102.074C104.485 167.451 107.032 166.615 109.507 166.482C114.368 166.209 117.872 168.678 119.323 172.703C120.323 172.023 121.407 171.601 122.462 171.547C125.12 171.398 126.596 173.618 125.938 176.588H33.709C35.6024 172.086 40.8785 168.147 45.838 167.639Z" fill="#F3F2F1"/>
<path d="M147.723 64.4428C147.897 64.4235 148.062 64.4135 148.222 64.4135C149.768 62.5371 151.698 61.3389 153.514 61.3389C154.825 61.3389 155.87 61.9642 156.554 63.0229C159.369 59.38 163.005 57.0131 166.407 57.0131C169.15 57.0131 171.235 58.5523 172.401 61.0648C173.99 59.6357 175.773 58.7787 177.472 58.7787C180.455 58.7787 182.309 61.4252 182.342 65.1589H182.346C183.832 64.3273 185.399 63.8122 186.923 63.7305C189.916 63.5619 192.073 65.0827 192.966 67.5605C193.581 67.1416 194.249 66.8822 194.9 66.849C196.535 66.7574 197.444 68.1234 197.039 69.9521H140.256C141.422 67.1801 144.67 64.7554 147.723 64.4428Z" fill="#F3F2F1"/>
<path d="M183.983 217.415C183.826 216.943 183.672 216.475 183.521 216.009C183.672 216.475 183.826 216.943 183.983 217.414C183.983 217.415 183.983 217.415 183.983 217.415Z" fill="#88ADE0"/>
<path d="M186.54 121.051C186.539 121.051 186.537 121.051 186.536 121.05C185.863 119.876 185.595 118.515 185.876 117.467L185.883 117.47C185.595 118.517 185.862 119.88 186.54 121.051Z" fill="#C3C5C2"/>
<ellipse opacity="0.3" cx="120" cy="316.411" rx="59" ry="13" fill="#AAB0B7"/>
<path d="M147.156 305.811H115.779V306.003H147.156V305.811Z" fill="#E7E8E5"/>
<path d="M84.1816 117.685L82.6778 119.937L81.0954 122.373C80.0421 124.008 79.0557 125.684 78.0755 127.349C77.1068 129.023 76.209 130.714 75.3536 132.405C74.5066 134.108 73.762 135.804 73.0613 137.513L73.3431 134.903C73.2984 136.025 73.4694 137.62 73.9229 139.304C74.3656 140.987 74.9593 142.807 75.7001 144.619C76.41 146.451 77.2447 148.3 78.1148 150.164C78.5544 151.094 78.9957 152.035 79.4615 152.964L80.8098 155.725L80.9368 155.984C81.927 158.012 81.0862 160.459 79.0588 161.449C77.575 162.173 75.8656 161.915 74.6675 160.931C73.6811 160.119 72.8487 159.387 71.9887 158.574C71.1517 157.767 70.3231 156.946 69.53 156.089C67.9385 154.377 66.44 152.558 65.0302 150.6C64.3248 149.622 63.6665 148.594 63.0197 147.531C62.3706 146.47 61.7546 145.357 61.2071 144.168C60.0987 141.806 59.1059 139.171 58.7052 135.96C58.6246 135.314 58.6643 134.68 58.8078 134.082L58.9874 133.35C59.5646 130.978 60.2049 128.621 61.0539 126.395C61.4551 125.266 61.9017 124.171 62.3483 123.071C62.8241 121.99 63.3061 120.911 63.8228 119.859C64.8346 117.739 65.9719 115.699 67.1785 113.703C67.7999 112.715 68.4128 111.721 69.0896 110.757C69.4276 110.275 69.7595 109.787 70.1191 109.306L70.6696 108.58L71.2957 107.776C74.0515 104.237 79.1543 103.603 82.6924 106.36C86.0658 108.987 86.7988 113.748 84.4711 117.252L84.1816 117.685Z" fill="#17282F"/>
<path d="M101.063 117.333L102.419 119.677L103.84 122.211C104.786 123.91 105.662 125.646 106.531 127.371C107.39 129.104 108.176 130.85 108.92 132.593C109.656 134.346 110.289 136.088 110.878 137.838L110.765 135.216C110.738 136.338 110.464 137.919 109.902 139.57C109.351 141.221 108.641 142.998 107.785 144.758C106.958 146.54 106.005 148.331 105.017 150.135C104.518 151.035 104.016 151.946 103.491 152.843L101.967 155.51L101.824 155.761C100.705 157.721 101.385 160.216 103.344 161.336C104.778 162.155 106.501 162.007 107.76 161.103C108.796 160.357 109.674 159.68 110.585 158.925C111.473 158.173 112.352 157.408 113.199 156.604C114.899 154.999 116.511 153.281 118.046 151.417C118.813 150.488 119.536 149.505 120.25 148.485C120.966 147.469 121.654 146.398 122.277 145.246C123.535 142.961 124.697 140.396 125.304 137.216C125.427 136.577 125.428 135.943 125.324 135.337L125.191 134.594C124.769 132.19 124.283 129.797 123.58 127.52C123.252 126.368 122.877 125.246 122.503 124.119C122.098 123.011 121.687 121.903 121.239 120.819C120.366 118.638 119.364 116.529 118.288 114.458C117.732 113.433 117.185 112.401 116.572 111.396C116.266 110.892 115.967 110.384 115.639 109.881L115.137 109.121L114.565 108.277C112.043 104.568 106.992 103.606 103.282 106.127C99.7467 108.531 98.7064 113.235 100.802 116.882L101.063 117.333Z" fill="#17282F"/>
<path d="M92.0713 314.459C92.0713 314.459 84.1627 311.555 83.1316 309.609H76.2725L76.5882 315.05C76.6467 316.058 77.4821 316.846 78.4924 316.846H80.1017L80.7169 316.179L81.8226 316.846C85.243 316.846 90.5768 316.714 92.685 315.941C92.6943 314.846 92.0713 314.459 92.0713 314.459Z" fill="#17282F"/>
<path d="M74.3192 234.878C75.2733 203.084 72.8116 181.838 75.7545 166.167L103.264 165.763C103.264 165.763 96.0009 216.205 92.4373 237.209C88.8599 258.295 84.0112 310.077 84.0112 310.077H74.9822C74.9822 310.077 69.198 259.474 74.3192 234.878Z" fill="#17282F"/>
<path d="M142.361 308.166C142.361 308.166 129.79 309.341 128.305 307.787L121.806 309.979L123.487 315.029C123.82 316.031 124.905 316.572 125.905 316.234L128.092 315.496L128.502 314.654L129.722 314.946C132.964 313.854 141.532 310.824 143.329 309.403C143.052 308.34 142.361 308.166 142.361 308.166Z" fill="#17282F"/>
<path d="M101.615 233.893C88.4217 204.351 82.1924 166.032 82.1924 166.032L112.244 161.806C112.244 161.806 116.781 213.03 119.28 234.405C121.882 256.631 129.293 307.949 129.293 307.949L119.961 311.096C119.961 311.096 101.3 259.981 101.615 233.893Z" fill="#17282F"/>
<path d="M79.0337 102.738C86.9709 101.753 96.5004 101.623 104.179 102.494C111.092 103.278 116.514 108.761 117.159 115.688C118.468 129.767 117.454 151.984 115.034 174.282C93.8847 181.378 73.2618 173.969 73.2618 173.969C72.7898 169.1 74.5662 153.372 76.2001 144.857C74.9989 136.066 71.952 126.001 70.2303 114.327C69.3956 108.664 73.3534 103.443 79.0337 102.738Z" fill="#17282F"/>
<path d="M86.9208 87.3902C86.2479 93.1883 86.0715 100.549 84.9111 104.902C88.0373 107.22 92.9938 109.977 99.1038 109.207C105.213 108.437 103.634 104.423 101.755 102.474C97.1241 100.749 96.7045 98.5305 97.5576 96.4454L86.9208 87.3902Z" fill="#17282F"/>
<path d="M87.1892 80.9447C86.8481 87.9486 86.2914 92.0335 89.4199 95.9635C94.1254 101.876 103.089 99.5625 105.521 92.7842C107.711 86.682 107.902 76.2539 101.38 72.7904C94.9539 69.3778 87.5311 73.9408 87.1892 80.9447Z" fill="#17282F"/>
<path d="M94.4404 90.75C97.9062 91.2544 102.493 91.6424 103.906 91.6994C103.489 92.1645 102.619 92.849 100.751 92.7097C98.8841 92.5703 95.4668 91.5885 94.4404 90.75Z" fill="#FFBE3D"/>
<path d="M91.8653 87.2756C94.5049 86.6927 93.9251 85.8303 93.9251 85.8303C93.9251 85.8303 92.4182 83.2485 92.3705 81.911C92.3235 80.5736 94.7713 78.2512 94.404 76.692C94.0375 75.1327 87.069 72.9629 83.3037 75.9782C84.5388 76.5103 85.4066 76.6535 85.4066 76.6535C85.4066 76.6535 82.8879 78.3182 83.6718 81.5291C84.4556 84.74 89.0456 87.8993 91.8653 87.2756Z" fill="#17282F"/>
<path d="M87.6208 75.1245C91.1158 76.2918 100.704 80.9927 105.003 77.7086C109.302 74.4246 108.572 67.6902 104.378 69.2363C104.378 69.2363 107.541 66.3912 103.4 66.4112C99.4957 66.4304 93.7192 72.0091 88.1513 70.5661C83.412 69.3372 84.1681 73.971 87.6208 75.1245Z" fill="#17282F"/>
<path d="M123.438 89.0558C117.448 100.035 113.815 137.618 137.852 150.019C126.112 126.895 140.704 117.463 131.967 102.472C128.177 100.312 123.438 89.0558 123.438 89.0558Z" fill="#17282F"/>
<path d="M131.186 92.941C128.27 105.104 130.453 138.942 156.894 144.636C139.523 125.38 154.256 113.745 141.908 101.556C137.685 100.461 131.186 92.941 131.186 92.941Z" fill="#17282F"/>
<path d="M121.937 291.845L113.791 292.443C114.916 298.927 115.979 309.165 115.979 309.165H122.436C122.436 309.165 121.697 296.282 121.937 291.845Z" fill="#17282F"/>
<path d="M158.155 291.956L150.053 292.193C151.576 298.752 153.267 309.075 153.267 309.075L159.719 309.363C159.719 309.363 158.187 296.399 158.155 291.956Z" fill="#17282F"/>
<path d="M129.429 315.569C123.817 315.569 124.215 315.483 121.054 315.377C118.346 315.28 117.725 315.618 115.551 315.569C113.736 315.531 113.676 313.795 114.09 311.799C114.248 311.033 114.486 310.137 114.709 309.035C114.838 308.398 115.381 307.951 116.041 307.951H122.607C123.084 307.951 123.557 308.178 123.849 308.577C125.23 310.47 127.488 311.859 130.372 312.243C133.421 312.647 131.667 315.569 129.429 315.569Z" fill="#17282F"/>
<path d="M168.902 313.829C163.333 314.533 163.7 314.399 160.53 314.693C157.813 314.94 157.305 315.345 155.134 315.57C153.32 315.76 152.698 314.089 152.46 312.108C152.369 311.347 152.314 310.45 152.178 309.357C152.099 308.726 152.493 308.225 153.147 308.142L159.662 307.318C160.136 307.258 160.678 307.419 161.097 307.768C163.081 309.424 165.772 310.484 168.758 310.494C171.914 310.503 171.121 313.548 168.902 313.829Z" fill="#17282F"/>
<path d="M155.905 165.21C155.905 165.21 156.765 204.899 156.32 230.102C158.255 253.764 159.11 299.184 159.11 299.184C158.964 300.387 152.609 299.621 151.511 298.845C151.511 298.845 139.149 268.483 141.524 230.102C125.29 190.075 130.503 165.21 130.503 165.21H155.905Z" fill="#17282F"/>
<path d="M148.991 165.211C148.991 165.211 137.387 210.008 132.789 232.005C127.96 255.106 121.191 283.676 122.537 299.023C121.243 299.787 116.624 299.834 114.011 299.023C114.011 299.023 104.073 255.266 116.71 233.027C112.138 178.302 126.613 165.211 126.613 165.211H148.991Z" fill="#17282F"/>
<path d="M123.089 295.827C123.136 296.601 123.245 297.95 123.476 298.98C123.559 299.351 123.319 299.695 122.947 299.755C119.841 300.255 115.304 299.531 113.864 299.273C113.587 299.223 113.373 299.006 113.322 298.73L112.772 295.782C112.697 295.378 113.003 295.016 113.411 295.023L122.428 295.197C122.778 295.203 123.068 295.478 123.089 295.827Z" fill="#17282F"/>
<path d="M159.876 295.88C159.925 296.705 160.018 298.175 160.126 299.263C160.163 299.623 159.906 299.928 159.549 299.961C156.872 300.213 152.573 299.684 151.162 299.494C150.882 299.457 150.655 299.244 150.594 298.968L149.938 295.988C149.848 295.582 150.149 295.206 150.562 295.208L159.206 295.248C159.56 295.25 159.855 295.526 159.876 295.88Z" fill="#17282F"/>
<path d="M158.623 131.634C158.714 134.437 158.837 137.983 158.423 144.672C158.189 150.333 156.941 156.283 155.414 165.444C152.316 167.26 136.641 166.506 126.61 165.211C127.219 157.183 126.225 148.009 120.785 129.945C119.524 125.757 122.336 121.734 126.828 121.305C128.028 121.19 129.301 121.096 130.608 121.036C135.687 120.805 139.852 120.651 144.365 121.036C145.86 121.164 147.41 121.341 148.891 121.535C154.238 122.233 158.458 126.613 158.623 131.634Z" fill="#17282F"/>
<path d="M131.573 105.561C132.771 109.987 134.242 118.098 131.364 121.052C131.364 121.052 135.158 125.323 142.788 127.494C148.156 124.418 145.121 121.052 145.121 121.052C140.098 119.873 139.952 116.211 140.556 112.772L131.573 105.561Z" fill="#17282F"/>
<path d="M131.051 120.359C131.051 120.359 136.26 124.986 137.81 136.137C140.771 157.439 135.027 239.632 135.027 239.632C135.027 239.632 117.239 238.45 110.298 232.485C109.971 226.519 121.5 171.552 120.486 155.775C119.472 139.997 117.521 126.255 119.557 123.286C121.593 120.317 131.051 120.359 131.051 120.359Z" fill="#17282F"/>
<path d="M144.748 120.803C152.681 130.984 144.984 192.458 142.694 239.961C149.734 239.112 159.111 235.107 159.111 235.107C159.111 235.107 157.244 179.145 158.717 157.769C160.188 136.392 159.981 128.954 156.545 125.009C153.11 121.065 144.748 120.803 144.748 120.803Z" fill="#17282F"/>
<path d="M127.796 96.6763C129.139 103.823 129.556 106.869 133.634 110.297C139.769 115.454 148.197 112.725 149.004 105.439C149.728 98.8801 147.411 88.2941 140.046 85.934C132.789 83.6094 126.453 89.5292 127.796 96.6763Z" fill="#17282F"/>
<path d="M137.581 101.749C141.104 102.151 145.74 101.965 147.161 101.749C146.791 103.047 145.987 105.025 144.101 105.148C142.216 105.272 138.694 103.634 137.581 101.749Z" fill="#FFBE3D"/>
<path d="M130.425 101.616C132.596 97.1519 134.888 92.99 133.803 91.4816C132.717 89.9732 127.428 87.6685 124.874 90.1549C121.034 93.8948 124.516 101.555 126.776 102.219C129.037 102.883 130.425 101.616 130.425 101.616Z" fill="#17282F"/>
<path d="M132.192 90.7571C137.995 92.7776 142.791 86.486 144.53 88.9168C147.134 86.1125 142.098 84.0612 136.758 84.0612C129.323 84.0612 121.642 85.4203 123.244 93.4629C124.252 98.5195 132.192 90.7571 132.192 90.7571Z" fill="#17282F"/>
<path d="M126.773 131.201C126.679 131.274 126.427 131.514 126.242 131.693L125.632 132.298C125.224 132.711 124.826 133.154 124.428 133.599C123.287 134.873 121.461 136.442 121.545 138.347C121.582 139.178 121.796 139.994 121.669 140.829C121.548 141.624 121.131 142.346 120.692 143.013C118.075 146.992 114.056 150.554 113.443 155.648L113.413 155.857L113.409 155.895L113.415 155.86L113.416 155.743L113.415 155.704C113.428 155.767 113.494 155.991 113.647 156.263C113.945 156.824 114.506 157.559 115.165 158.26C116.496 159.694 118.244 161.026 120.055 162.271C121.889 163.498 123.838 164.635 125.847 165.667C126.849 166.188 127.879 166.661 128.906 167.132C129.918 167.595 131.007 168.063 131.969 168.406L127.104 179.697C126.487 179.353 125.985 179.044 125.436 178.717L123.83 177.758C122.766 177.113 121.721 176.435 120.671 175.762C118.575 174.407 116.493 173.002 114.448 171.439C112.389 169.884 110.38 168.194 108.405 166.042C107.427 164.94 106.453 163.73 105.58 162.051C105.153 161.204 104.737 160.231 104.461 159.015C104.324 158.411 104.229 157.736 104.203 157.01C104.195 156.641 104.193 156.275 104.227 155.885L104.25 155.596L104.264 155.455L104.273 155.381L104.313 155.085C105.097 148.742 107.31 142.811 110.075 137.478C111.472 134.807 113.016 132.262 114.684 129.825C115.514 128.603 116.378 127.411 117.282 126.243C117.734 125.657 118.199 125.083 118.674 124.503L119.401 123.628C119.666 123.32 119.869 123.078 120.24 122.682L126.773 131.201Z" fill="#17282F"/>
<ellipse opacity="0.3" cx="303.5" cy="310.047" rx="70.5" ry="15.5" fill="#AAB0B7"/>
<path d="M293.752 294.259H288.876V294.451H293.752V294.259Z" fill="#E7E8E5"/>
<path d="M281.107 111.74L282.613 113.994L284.196 116.431C285.25 118.068 286.237 119.745 287.218 121.411C288.188 123.087 289.085 124.779 289.942 126.471C290.789 128.176 291.535 129.873 292.236 131.582L291.954 128.971C291.999 130.093 291.828 131.691 291.374 133.375C290.93 135.06 290.337 136.881 289.595 138.694C288.885 140.527 288.05 142.378 287.179 144.243C286.739 145.174 286.297 146.116 285.831 147.046L284.482 149.808L284.355 150.068C283.364 152.098 284.205 154.546 286.235 155.537C287.719 156.262 289.43 156.003 290.628 155.019C291.616 154.206 292.449 153.473 293.31 152.66C294.148 151.852 294.977 151.031 295.771 150.173C297.363 148.46 298.862 146.64 300.274 144.68C300.98 143.702 301.639 142.673 302.286 141.608C302.935 140.547 303.551 139.433 304.1 138.242C305.208 135.879 306.203 133.242 306.604 130.027C306.684 129.382 306.644 128.748 306.501 128.149L306.321 127.416C305.744 125.042 305.103 122.685 304.253 120.456C303.852 119.326 303.404 118.23 302.958 117.129C302.481 116.048 301.998 114.968 301.482 113.916C300.469 111.794 299.332 109.752 298.123 107.754C297.502 106.766 296.888 105.771 296.211 104.807C295.873 104.323 295.54 103.836 295.181 103.355L294.63 102.627L294.003 101.823C291.245 98.2818 286.139 97.6473 282.598 100.405C279.222 103.035 278.488 107.8 280.818 111.306L281.107 111.74Z" fill="#17282F"/>
<path d="M264.216 111.387L262.859 113.733L261.437 116.269C260.49 117.97 259.614 119.708 258.743 121.433C257.885 123.168 257.098 124.915 256.352 126.659C255.617 128.415 254.983 130.157 254.394 131.909L254.507 129.284C254.534 130.408 254.808 131.99 255.37 133.643C255.922 135.294 256.632 137.073 257.489 138.835C258.317 140.618 259.27 142.411 260.26 144.216C260.759 145.116 261.26 146.027 261.786 146.925L263.312 149.595L263.455 149.846C264.575 151.807 263.894 154.304 261.933 155.425C260.499 156.244 258.774 156.097 257.514 155.193C256.477 154.445 255.598 153.767 254.687 153.012C253.798 152.26 252.917 151.493 252.07 150.689C250.37 149.083 248.756 147.363 247.221 145.499C246.453 144.569 245.729 143.585 245.014 142.564C244.297 141.547 243.61 140.476 242.986 139.323C241.727 137.036 240.564 134.469 239.956 131.287C239.834 130.647 239.833 130.012 239.937 129.406L240.069 128.663C240.492 126.257 240.979 123.862 241.682 121.584C242.01 120.43 242.385 119.307 242.76 118.179C243.165 117.07 243.577 115.961 244.024 114.877C244.898 112.694 245.901 110.583 246.977 108.511C247.534 107.485 248.082 106.452 248.695 105.446C249 104.942 249.301 104.434 249.629 103.93L250.132 103.169L250.704 102.326C253.228 98.6137 258.283 97.6505 261.995 100.174C265.534 102.579 266.575 107.286 264.477 110.937L264.216 111.387Z" fill="#17282F"/>
<path d="M273.213 308.666C273.213 308.666 281.128 305.76 282.16 303.812L289.024 303.811L288.604 311.055H285.192L284.576 310.387L283.47 311.055C280.047 311.055 274.709 310.922 272.599 310.149C272.59 309.053 273.213 308.666 273.213 308.666Z" fill="#17282F"/>
<path d="M290.978 229.024C290.023 197.205 292.487 175.943 289.541 160.259L262.011 159.856C262.011 159.856 269.28 210.336 272.846 231.356C276.426 252.457 281.278 304.28 281.278 304.28H290.314C290.314 304.28 296.102 253.639 290.978 229.024Z" fill="#17282F"/>
<path d="M266.928 309.544C266.928 309.544 273.702 305.32 273.83 299.207L279.413 295.212L283.651 301.085L280.214 303.545L279.292 303.384L278.814 304.547C276.031 306.538 273.146 311.055 267.366 311.055C266.666 310.208 266.928 309.544 266.928 309.544Z" fill="#17282F"/>
<path d="M263.703 229.612C276.906 200.047 283.1 160.124 283.1 160.124L253.025 155.895C253.025 155.895 244.591 211.846 245.983 228.55C247.217 243.356 273.386 300.102 273.386 300.102L281.4 294.366C281.4 294.366 271.357 246.418 263.703 229.612Z" fill="#17282F"/>
<path d="M286.261 96.7837C278.318 95.7973 268.781 95.668 261.097 96.5396C254.178 97.3235 248.752 102.811 248.107 109.744C246.796 123.833 247.811 146.067 250.233 168.383C271.399 175.484 292.038 168.069 292.038 168.069C292.51 163.196 290.732 147.456 289.097 138.934C290.3 130.137 293.349 120.064 295.071 108.381C295.907 102.714 291.946 97.489 286.261 96.7837Z" fill="#17282F"/>
<path d="M279.161 82.6386C279.557 88.2172 279.41 95.2712 280.335 99.4862C277.244 101.572 272.381 103.998 266.566 103C260.751 102.002 262.434 98.2272 264.316 96.4408C268.823 94.9886 269.32 92.8834 268.592 90.8506L279.161 82.6386Z" fill="#17282F"/>
<path d="M279.177 76.4571C279.204 83.1761 279.562 87.1101 276.4 90.7383C271.643 96.1953 263.161 93.5973 261.123 87.0046C259.288 81.071 259.552 71.0802 265.943 68.0441C272.24 65.0534 279.15 69.7381 279.177 76.4571Z" fill="#17282F"/>
<path d="M262.949 84.8527C267.605 85.1776 270.629 84.6009 271.755 84.3129C267.729 86.6614 264.773 86.9902 262.949 84.8527Z" fill="#FFBE3D"/>
<path d="M275.29 83.22C272.243 85.0426 271.818 81.9696 272.557 80.6552C271.364 79.2468 270.317 74.4544 273.672 73.997C272.055 74.422 266.925 73.9562 267.769 70.8762C265.819 72.6349 259.953 73.6813 260.321 70.562C260.86 66.0075 267.821 62.112 272.557 66.0075C278.275 62.929 284.934 69.3054 281.541 72.2268C285.899 73.1454 284.934 79.6241 282.436 80.4488C284.368 83.8176 276.688 88.215 275.29 83.22Z" fill="#17282F"/>
<path d="M338.955 232.516C334.699 202.052 334.151 181.695 329.685 166.679L303.958 166.292C303.958 166.292 316.219 214.624 321.84 234.749C327.483 254.952 337.57 304.568 337.57 304.568H346.221C346.221 304.568 346.446 256.083 338.955 232.516Z" fill="#17282F"/>
<path d="M330.307 308.767C330.307 308.767 337.581 305.986 338.363 304.12H344.936L345.294 311.055H341.372L340.713 310.416L339.725 311.055C336.447 311.055 331.977 310.927 329.875 310.188C329.751 309.138 330.307 308.767 330.307 308.767Z" fill="#17282F"/>
<path d="M314.441 233.369C319.575 203.075 321.712 166.55 321.712 166.55L293.446 166.094C293.446 166.094 296.697 215.323 297.827 235.943C299 257.383 299.825 304.568 299.825 304.568H309.261C309.261 304.568 317.289 259.876 314.441 233.369Z" fill="#17282F"/>
<path d="M327.494 106.643C327.494 106.643 323.909 103.491 322.426 102.749C320.942 102.008 309.508 102.255 306.85 102.749C304.192 103.243 300.961 107.2 300.961 107.2L327.494 106.643Z" fill="#17282F"/>
<path d="M327.114 105.896C317.969 104.769 304.995 104.872 296.382 106.374C291.998 107.139 288.712 110.8 288.351 115.237C287.282 128.374 290.188 151.34 292.696 174.456C312.961 181.255 333.532 174.364 333.532 174.364C333.984 169.699 331.471 154.42 329.906 146.262C331.057 137.839 333.976 128.193 335.626 117.008C336.426 111.577 332.562 106.567 327.114 105.896Z" fill="#17282F"/>
<path d="M307.346 93.2267C309.448 95.6991 310.275 98.6043 314.002 98.7899C317.73 98.9755 320.265 99.4744 320.078 96.5646C319.77 91.7436 322.25 85.5629 322.682 82.4721C323.115 79.3821 322.86 74.4795 318.657 75.7969C320.14 72.9341 318.031 70.4809 314.763 70.7904C308.836 71.351 304.049 75.6014 300.833 74.6573C297.742 73.7511 299.365 72.7069 299.365 72.7069C299.365 72.7069 293.222 72.3743 294.283 78.2278C295.464 84.7382 301.466 82.4628 301.466 82.4628C301.466 82.4628 297.372 87.541 307.346 93.2267Z" fill="#17282F"/>
<path d="M318.001 90.7514C319.257 96.2015 320.205 103.192 321.77 107.215C319.039 109.754 314.611 112.904 308.712 112.818C302.812 112.733 303.891 108.742 305.474 106.687C309.7 104.554 309.865 102.397 308.832 100.502L318.001 90.7514Z" fill="#17282F"/>
<path d="M317.063 84.6414C318.13 91.2749 319.093 95.1057 316.53 99.1805C312.677 105.309 303.896 104.056 300.86 97.8585C298.128 92.2806 296.842 82.3691 302.686 78.3805C308.443 74.4497 315.995 78.0078 317.063 84.6414Z" fill="#17282F"/>
<path d="M302.796 96.1517C305.953 95.4918 309.245 94.3276 311.017 93.2519C309.021 96.6453 307.019 97.6663 305.801 98.0136C304.584 98.3616 302.796 96.1517 302.796 96.1517Z" fill="#FFBE3D"/>
<path d="M304.112 118.055C303.92 118.726 303.753 119.238 303.568 119.815L302.997 121.479C302.615 122.584 302.181 123.668 301.748 124.757C300.854 126.926 299.898 129.088 298.763 131.235C297.64 133.393 296.397 135.541 294.781 137.741C293.968 138.84 293.083 139.978 291.908 141.13C291.319 141.707 290.663 142.299 289.858 142.896C289.051 143.489 288.094 144.102 286.839 144.621L286.551 144.74C283.029 146.198 278.992 144.524 277.535 141.002C277.322 140.488 277.172 139.927 277.089 139.4C276.934 138.385 276.964 137.494 277.06 136.737C277.16 136.015 277.32 135.363 277.493 134.847C277.845 133.776 278.252 132.995 278.653 132.316C279.457 130.977 280.252 130.011 281.053 129.118C282.644 127.361 284.261 125.997 285.879 124.692C287.519 123.417 289.173 122.255 290.875 121.181C292.592 120.109 294.28 119.125 296.161 118.216C298.125 117.268 300.485 118.091 301.433 120.054C302.095 121.423 301.895 122.985 301.047 124.127L300.935 124.278C299.846 125.74 298.633 127.215 297.504 128.661C296.363 130.109 295.232 131.536 294.19 132.956C293.133 134.349 292.16 135.778 291.436 137.038C291.089 137.658 290.796 138.259 290.718 138.605C290.681 138.768 290.703 138.862 290.789 138.704C290.821 138.641 290.896 138.459 290.935 138.207C290.984 137.924 291.019 137.51 290.938 136.965L281.188 131.743C280.699 131.907 280.996 131.712 281.289 131.254C281.6 130.797 282.035 130.179 282.44 129.46C282.853 128.745 283.266 127.947 283.666 127.111C284.081 126.28 284.486 125.409 284.876 124.515C285.647 122.718 286.424 120.856 287.148 118.955L289.276 113.313L289.332 113.163C290.85 109.138 295.345 107.104 299.37 108.623C303.186 110.061 305.202 114.202 304.112 118.055Z" fill="#17282F"/>
<path d="M281.917 122.468L280.495 126.266C280.259 126.899 280.317 127.508 280.646 127.832L281.532 128.704C282.195 129.357 283.327 129.153 283.926 128.272L286.597 124.344C287.212 123.44 286.966 122.265 286.086 121.9L283.997 121.032C283.305 120.745 282.303 121.435 281.917 122.468Z" fill="#17282F"/>
<path d="M288.226 308.767C288.226 308.767 299.866 305.986 300.649 304.12H307.222L307.579 311.055H303.534L302.875 310.416L301.886 311.055C298.608 311.055 289.895 310.927 287.793 310.188C287.669 309.138 288.226 308.767 288.226 308.767Z" fill="#17282F"/>
<path d="M247.568 258.567C247.502 257.845 247.44 257.171 247.385 256.558C247.386 256.558 247.387 256.558 247.388 256.557C247.443 257.171 247.503 257.843 247.568 258.567Z" fill="#B6B8B6"/>
<ellipse opacity="0.3" cx="202.499" cy="348.798" rx="70.5" ry="15.5" fill="#AAB0B7"/>
<path d="M282.299 14.1424L236.889 11.717C232.569 11.4863 228.881 14.8007 228.65 19.1192L226.971 50.5604C226.74 54.8799 230.054 58.5683 234.374 58.799L239.843 59.0911C238.182 63.118 236.224 68.6181 237.6 69.3225C239.158 70.1193 246.847 63.5946 251.226 59.6991L279.784 61.2243C284.103 61.4551 287.792 58.1406 288.023 53.8212L289.702 22.38C289.933 18.0615 286.618 14.3731 282.299 14.1424Z" fill="#F5811F"/>
<path d="M26.8205 19.8435L72.2306 17.4182C76.5501 17.1875 80.2385 20.5019 80.4691 24.8204L82.1484 56.2616C82.3791 60.581 79.0647 64.2695 74.7453 64.5002L69.2758 64.7923C70.9376 68.8192 72.895 74.3192 71.5191 75.0236C69.9614 75.8205 62.2719 69.2958 57.893 65.4002L29.3351 66.9255C25.0157 67.1562 21.3272 63.8418 21.0965 59.5224L19.4173 28.0812C19.1866 23.7627 22.501 20.0742 26.8205 19.8435Z" fill="#F5811F"/>
<path d="M99.8214 17.8433L145.232 15.4179C149.551 15.1872 153.239 18.5016 153.47 22.8202L155.149 54.2614C155.38 58.5808 152.066 62.2692 147.746 62.4999L142.277 62.7921C143.938 66.8189 137.875 79.7957 136.499 80.5001C134.941 81.297 135.273 67.2956 130.894 63.4L102.336 64.9253C98.0166 65.156 94.3282 61.8416 94.0975 57.5221L92.4182 26.081C92.1875 21.7624 95.5019 18.074 99.8214 17.8433Z" fill="#F5811F"/>
<path d="M377.298 28.8435L331.888 26.4182C327.568 26.1875 323.88 29.5019 323.649 33.8204L321.97 65.2616C321.739 69.581 325.053 73.2695 329.373 73.5002L334.842 73.7923C333.181 77.8192 331.223 83.3192 332.599 84.0236C334.157 84.8205 341.846 78.2958 346.225 74.4002L374.783 75.9255C379.102 76.1562 382.791 72.8418 383.022 68.5224L384.701 37.0812C384.932 32.7627 381.617 29.0742 377.298 28.8435Z" fill="#F5811F"/>
<path d="M259.61 50.1989C259.353 52.9497 256.917 54.969 254.122 54.7084C251.371 54.4511 249.351 52.0145 249.608 49.2637C249.87 46.468 252.305 44.4487 255.057 44.7061C257.853 44.9676 259.872 47.4032 259.61 50.1989ZM248.439 26.4084C246.477 25.2239 246.053 22.5231 247.611 20.8414C249.454 18.8521 252.611 16.8963 257.743 17.3763C264.295 17.9884 269.747 22.8156 269.172 28.9744C268.772 33.2545 265.338 35.5772 260.978 36.9759C259.432 37.493 259.274 38.7114 259.139 40.1527C259.013 41.5034 257.815 42.4971 256.465 42.3707L254.149 42.1542C252.799 42.0278 251.806 40.8307 251.932 39.4799L252.149 37.1647C252.328 35.2429 252.562 33.6781 254.646 32.5956C257.47 31.1407 259.972 31.243 260.261 28.1416C260.457 26.0451 259.024 24.4133 257.058 24.2292C255.277 24.0633 253.936 24.7863 252.988 25.7776C251.797 27.0237 249.914 27.2993 248.439 26.4084Z" fill="white"/>
<path d="M219.635 325.644L222.378 339.542L226.956 340.822L235.12 340.223L232.878 326.352L219.635 325.644Z" fill="#F68A81"/>
<path d="M221.565 338.862C221.565 338.862 221.749 347.979 222.132 349.418C222.516 350.859 223.418 350.762 223.418 350.762C223.418 350.762 228.388 352.536 231.76 353.249C235.129 353.961 239.215 355.065 243.267 355.105C247.317 355.144 248.908 354.697 248.979 353.369C249.05 352.043 248.728 349.452 243.928 346.179C239.128 342.906 236.384 340.807 236.384 340.807C236.384 340.807 235.552 339.165 233.838 338.453C232.127 337.741 227.922 340 226.867 340.21C225.812 340.42 222.811 337.952 221.565 338.862Z" fill="#185885"/>
<path d="M171.828 324.807L171.258 335.469L178.339 337.894L183.104 336.102L183.674 325.44L171.828 324.807Z" fill="#F68A81"/>
<path d="M170.074 335.405C170.074 335.405 166.614 338.389 161.167 341.53C155.718 344.67 155.545 345.454 155.695 347.574C155.846 349.693 168.649 349.718 173.562 349.188C178.473 348.658 180.469 348.369 180.469 348.369L183.816 347.492L183.147 335.311C183.147 335.311 180.063 336.202 178.725 336.23C177.387 336.258 174.502 333.728 172.555 333.129C170.606 332.53 170.076 334.745 170.074 335.405Z" fill="#185885"/>
<path d="M280.175 106.024C279.155 106.144 277.58 107.979 276.738 109.053L276.27 108.955C277.519 107.243 280.369 104.457 278.518 104.797C276.86 105.101 275.162 107.583 274.531 108.595L273.947 108.472C275.173 106.628 278.431 103.355 276.432 103.744C274.58 104.103 272.676 107.174 272.14 108.098L271.807 108.029C272.974 106.217 274.593 104.017 273.079 104.458C271.395 104.95 269.893 107.931 269.455 108.873C268.527 109.735 267.455 110.792 266.756 111.487C266.305 109.188 264.983 106.321 264.261 106.46C263.46 106.616 264.207 109.329 264.257 111.164C264.291 112.385 264.773 113.824 265.091 114.652C262.552 119.119 254.954 129.749 250.86 137.65L241.354 126.622L226.151 134.522C226.151 134.522 241.365 156.852 247.892 156.21C262.413 154.781 271.285 124.497 273.22 117.186L278.19 109.676C278.19 109.676 281.618 105.853 280.175 106.024Z" fill="#F68A81"/>
<path d="M207.786 106.749L202.038 111.783L192.682 107.726C192.95 106.178 193.024 104.602 192.998 103.196C192.981 102.299 192.933 101.465 192.871 100.74C192.727 99.0974 192.517 98.0056 192.517 98.0056L206.881 98.0885C206.758 98.6733 206.697 99.3074 206.69 99.9545C206.679 100.674 206.722 101.407 206.814 102.113C207.098 104.587 207.786 106.749 207.786 106.749Z" fill="#F68A81"/>
<path d="M206.813 102.112C205.125 103.445 202.127 105.586 200.176 105.611C198.225 105.636 194.896 104.137 192.996 103.195C192.98 102.297 192.932 101.463 192.869 100.739C193.433 101.074 196.45 102.733 200.149 102.311C202.846 102.002 205.314 100.766 206.688 99.9532C206.677 100.673 206.721 101.405 206.813 102.112Z" fill="#F46E66"/>
<path d="M181.509 73.6821C181.509 73.6821 182.857 87.8888 184.133 92.7762C185.411 97.6637 193.736 102.186 199.675 102.585C204.724 102.925 212.294 95.9744 213.662 91.8812C215.031 87.7891 214.435 69.1656 214.435 69.1656C214.435 69.1656 193.311 49.9819 181.509 73.6821Z" fill="#F68A81"/>
<path d="M193.736 82.4258C193.809 83.3807 193.428 84.188 192.887 84.229C192.345 84.27 191.847 83.5297 191.775 82.5749C191.702 81.6191 192.082 80.8117 192.624 80.7708C193.166 80.7298 193.663 81.471 193.736 82.4258Z" fill="#185885"/>
<path d="M206.062 81.4261C206.1 82.3837 205.69 83.1767 205.148 83.1982C204.605 83.2198 204.134 82.4608 204.096 81.5041C204.058 80.5474 204.467 79.7544 205.01 79.7319C205.553 79.7112 206.024 80.4694 206.062 81.4261Z" fill="#185885"/>
<path d="M183.75 82.3375C183.75 82.3375 180.487 78.8726 178.467 80.0182C176.447 81.1639 177.204 86.0631 179.727 88.705C182.251 91.3477 184.349 90.2063 184.349 90.2063L183.75 82.3375Z" fill="#F68A81"/>
<path d="M213.343 80.0001C213.343 80.0001 216.16 76.1637 218.305 77.0545C220.45 77.9453 220.296 82.9006 218.112 85.83C215.93 88.7604 213.708 87.883 213.708 87.883L213.343 80.0001Z" fill="#F68A81"/>
<path d="M182.341 81.3687L183.407 86.3488C183.407 86.3488 186.623 85.3691 185.996 74.645C185.996 74.645 192.466 74.0093 194.586 71.0673C194.586 71.0673 199.847 72.6478 203.031 72.2771C206.214 71.9072 208.947 69.7622 208.947 69.7622C208.947 69.7622 208.749 77.5571 212.059 78.9037C212.059 78.9037 211.77 83.8234 213.55 84.4363C213.55 84.4363 214.284 77.621 217.112 76.9848C217.112 76.9848 219.48 70.6513 218.938 68.5503C218.396 66.4492 216.359 65.7941 216.359 65.7941C216.359 65.7941 216.09 54.6018 198.658 56.1226C181.853 57.5878 179.059 66.3109 178.471 67.8071C177.631 69.9373 178.602 72.144 178.677 74.8372C178.752 77.5304 179.611 79.8029 179.611 79.8029L182.341 81.3687Z" fill="#185885"/>
<path d="M236.54 329.189L217.716 328.184L201.386 211.283L199.01 211.294L188.176 326.606L168.817 325.572L171.621 262.861L172.381 245.872L175.256 181.501L224.421 184.127L229.777 248.208L231.22 265.471L236.54 329.189Z" fill="#FBC068"/>
<path d="M181.138 199.291C183.086 199.889 183.729 198.983 183.314 198.415C182.898 197.85 179.143 195.756 178.26 194.639L175.32 190.91C175.321 190.91 177.217 191.16 179.145 191.115C181.074 191.07 182.528 189.959 179.73 189.513C177.689 189.187 174.727 188.603 173.27 188.31L172.792 187.706L164.611 167.205L175.195 140.577L160.976 132.536C160.976 132.536 149.21 160.046 147.821 166.309C146.429 172.57 167.334 196.391 167.334 196.391L167.347 196.372C168.029 198.043 169.08 200.365 170.207 201.924C172.142 204.6 173.827 204.971 173.827 204.971L173.827 204.969C174.273 205.251 174.712 205.477 175.109 205.6C177.056 206.198 177.699 205.292 177.284 204.725C177.066 204.428 175.932 203.712 174.774 202.938L174.999 202.452C176.056 203.342 177.38 204.328 178.378 204.635C180.326 205.233 180.968 204.328 180.553 203.761C180.188 203.264 177.25 201.59 175.941 200.433L176.282 199.701C177.386 200.667 178.949 201.902 180.089 202.254C182.037 202.853 182.679 201.946 182.264 201.38C181.853 200.819 178.173 198.763 177.243 197.638L177.567 196.942C178.651 197.871 180.078 198.964 181.138 199.291Z" fill="#F68A81"/>
<path d="M192.998 104.027L169.59 113.415L174.271 160.065L175.259 181.502L224.422 184.128L226.632 161.277L229.383 109.768L207.337 105.086C207.337 105.086 205.046 109.455 200.671 109.805C196.296 110.156 192.998 104.027 192.998 104.027Z" fill="#185885"/>
<path d="M169.588 113.416C169.588 113.416 159.933 127.374 157.212 133.819C157.212 133.819 166.122 139.829 175.195 140.578C175.195 140.578 177.051 120.746 169.588 113.416Z" fill="#185885"/>
<path d="M229.355 109.764C229.355 109.764 240.127 120.76 244.752 126.01C244.752 126.01 237.144 133.128 227.862 138.242C227.862 138.242 224.603 119.081 229.355 109.764Z" fill="#185885"/>
<path d="M188.741 77.5835C188.741 77.5835 192.431 77.7805 194.076 76.2543" stroke="#185885" stroke-width="1.33333" stroke-miterlimit="10" stroke-linecap="round" stroke-linejoin="round"/>
<path d="M208.341 75.9627C208.341 75.9627 205.649 75.1172 204.002 75.731" stroke="#185885" stroke-width="1.33333" stroke-miterlimit="10" stroke-linecap="round" stroke-linejoin="round"/>
<path d="M198.535 80.8047C198.535 80.8047 199.035 84.5892 198.656 85.1309C198.656 85.1309 197.441 85.3466 197.652 86.7613C197.861 88.1768 199.187 88.3176 199.187 88.3176" stroke="#D45B59" stroke-width="1.33333" stroke-miterlimit="10" stroke-linecap="round" stroke-linejoin="round"/>
<path d="M196.883 92.055C196.883 92.055 201.083 90.9458 203.112 92.3877C205.14 93.8296 198.092 94.3655 196.763 94.2946C195.434 94.2235 195.586 92.6875 196.883 92.055Z" fill="white"/>
<path d="M217.779 80.2385C217.779 80.2385 215.518 82.0711 214.892 85.0322" stroke="#D45B59" stroke-width="1.33333" stroke-miterlimit="10" stroke-linecap="round" stroke-linejoin="round"/>
<path d="M217.126 84.5733C217.126 84.5733 216.916 82.7898 216.186 82.0583" stroke="#D45B59" stroke-width="1.33333" stroke-miterlimit="10" stroke-linecap="round" stroke-linejoin="round"/>
<path d="M179.183 82.4413C179.183 82.4413 181.823 84.4034 182.496 87.4265" stroke="#D45B59" stroke-width="1.33333" stroke-miterlimit="10" stroke-linecap="round" stroke-linejoin="round"/>
<path d="M180.116 86.6499C180.116 86.6499 180.253 85.0671 180.88 84.1579" stroke="#D45B59" stroke-width="1.33333" stroke-miterlimit="10" stroke-linecap="round" stroke-linejoin="round"/>
<path d="M172.618 118.039C172.618 118.039 171.512 132.577 172.274 140.164" stroke="#14425E" stroke-width="1.33333" stroke-miterlimit="10" stroke-linecap="round" stroke-linejoin="round"/>
<path d="M227.254 117.09C227.254 117.09 228.936 131.423 227.776 137.704" stroke="#14425E" stroke-width="1.33333" stroke-miterlimit="10" stroke-linecap="round" stroke-linejoin="round"/>
<path d="M191.937 108.868C191.937 108.868 195.173 112.341 200.459 112.228C205.746 112.113 207.628 109.706 207.628 109.706" stroke="#14425E" stroke-width="1.33333" stroke-miterlimit="10" stroke-linecap="round" stroke-linejoin="round"/>
<path d="M163.725 167.29C163.725 167.29 160.968 167.012 158.46 167.009" stroke="#D45B59" stroke-width="1.33333" stroke-miterlimit="10" stroke-linecap="round" stroke-linejoin="round"/>
<path d="M250.858 137.65C250.858 137.65 248.752 142.275 248.119 144.215" stroke="#D45B59" stroke-width="1.33333" stroke-miterlimit="10" stroke-linecap="round" stroke-linejoin="round"/>
<path d="M266.753 111.486L268.088 113.859" stroke="#D45B59" stroke-width="1.33333" stroke-miterlimit="10" stroke-linecap="round" stroke-linejoin="round"/>
<path d="M270.506 108.168C270.506 108.168 275.334 108.588 276.891 109.719" stroke="#D45B59" stroke-width="1.33333" stroke-miterlimit="10" stroke-linecap="round" stroke-linejoin="round"/>
<path d="M176.53 184.541L221.745 186.956" stroke="#D45B59" stroke-width="1.33333" stroke-miterlimit="10" stroke-linecap="round" stroke-linejoin="round"/>
<path d="M198.448 185.711C198.448 185.711 194.123 203.675 199.882 207.062L200.783 190.192" stroke="#D45B59" stroke-width="1.33333" stroke-miterlimit="10" stroke-linecap="round" stroke-linejoin="round"/>
<path d="M188.012 203.173C188.012 203.173 193.481 207.015 196.247 209.156" stroke="#D45B59" stroke-width="1.33333" stroke-miterlimit="10" stroke-linecap="round" stroke-linejoin="round"/>
<path d="M203.711 209.555C203.711 209.555 210.99 203.014 212.488 200.916" stroke="#D45B59" stroke-width="1.33333" stroke-miterlimit="10" stroke-linecap="round" stroke-linejoin="round"/>
<path d="M171.144 320.876C171.144 320.876 178.395 322.055 185.2 321.627" stroke="#D45B59" stroke-width="1.33333" stroke-miterlimit="10" stroke-linecap="round" stroke-linejoin="round"/>
<path d="M233.622 324.213C233.622 324.213 224.901 324.364 218.976 324.091" stroke="#D45B59" stroke-width="1.33333" stroke-miterlimit="10" stroke-linecap="round" stroke-linejoin="round"/>
<path d="M156.636 345.742C156.636 345.742 159.452 346.783 167.174 346.801C174.895 346.817 182.623 345.15 182.623 345.15" stroke="#143D58" stroke-width="1.33333" stroke-miterlimit="10" stroke-linecap="round" stroke-linejoin="round"/>
<path d="M223.439 348.024C223.439 348.024 233.548 351.534 239.242 352.432C244.936 353.33 248.361 352.226 248.361 352.226" stroke="#143D58" stroke-width="1.33333" stroke-miterlimit="10" stroke-linecap="round" stroke-linejoin="round"/>
<path d="M164.994 339.157C164.994 339.157 167.295 339.28 169.496 341.313" stroke="#143D58" stroke-width="1.33333" stroke-miterlimit="10" stroke-linecap="round" stroke-linejoin="round"/>
<path d="M166.507 337.996C166.507 337.996 168.809 338.119 171.01 340.151" stroke="#143D58" stroke-width="1.33333" stroke-miterlimit="10" stroke-linecap="round" stroke-linejoin="round"/>
<path d="M168.02 336.833C168.02 336.833 170.322 336.956 172.522 338.989" stroke="#143D58" stroke-width="1.33333" stroke-miterlimit="10" stroke-linecap="round" stroke-linejoin="round"/>
<path d="M239.526 343.681C239.526 343.681 237.223 343.558 234.819 345.345" stroke="#143D58" stroke-width="1.33333" stroke-miterlimit="10" stroke-linecap="round" stroke-linejoin="round"/>
<path d="M238.145 342.365C238.145 342.365 235.843 342.243 233.439 344.028" stroke="#143D58" stroke-width="1.33333" stroke-miterlimit="10" stroke-linecap="round" stroke-linejoin="round"/>
<path d="M236.762 341.049C236.762 341.049 234.46 340.926 232.056 342.712" stroke="#143D58" stroke-width="1.33333" stroke-miterlimit="10" stroke-linecap="round" stroke-linejoin="round"/>
<path d="M214.919 66.4024L211.368 67.9951" stroke="#14425E" stroke-width="1.33333" stroke-miterlimit="10" stroke-linecap="round" stroke-linejoin="round"/>
<path d="M209.847 68.7055C209.847 68.7055 205.903 75.0468 194.585 71.067C194.585 71.067 189.401 75.3812 183.994 74.5066" stroke="#14425E" stroke-width="1.33333" stroke-miterlimit="10" stroke-linecap="round" stroke-linejoin="round"/>
<path d="M212.056 78.9041C212.056 78.9041 209.074 77.4738 208.945 69.7626" stroke="#14425E" stroke-width="1.33333" stroke-miterlimit="10" stroke-linecap="round" stroke-linejoin="round"/>
<path d="M180.557 67.1413C180.557 67.1413 179.745 68.8655 179.823 70.4607" stroke="#14425E" stroke-width="1.33333" stroke-miterlimit="10" stroke-linecap="round" stroke-linejoin="round"/>
<path d="M182.537 70.8631C182.537 70.8631 182.125 71.941 181.958 72.8076" stroke="#14425E" stroke-width="1.33333" stroke-miterlimit="10" stroke-linecap="round" stroke-linejoin="round"/>
<path d="M213.821 71.0289L214.514 72.5706" stroke="#14425E" stroke-width="1.33333" stroke-miterlimit="10" stroke-linecap="round" stroke-linejoin="round"/>
<path d="M212.341 61.513C212.341 61.513 213.667 62.6396 213.753 63.5023" stroke="#14425E" stroke-width="1.33333" stroke-miterlimit="10" stroke-linecap="round" stroke-linejoin="round"/>
<path d="M209.804 63.2913C209.804 63.2913 210.753 64.0023 211.026 64.4786" stroke="#14425E" stroke-width="1.33333" stroke-miterlimit="10" stroke-linecap="round" stroke-linejoin="round"/>
<path d="M195.506 69.0439L197.136 67.5638" stroke="#14425E" stroke-width="1.33333" stroke-miterlimit="10" stroke-linecap="round" stroke-linejoin="round"/>
<path d="M183.594 254.945C183.314 260.178 179.494 264.234 175.062 263.998C173.809 263.931 172.639 263.526 171.62 262.861L172.381 245.872C173.502 245.276 174.766 244.974 176.074 245.044C180.506 245.281 183.873 249.711 183.594 254.945Z" fill="#F9AE59"/>
<path d="M231.22 265.471C229.916 266.372 228.393 266.846 226.79 266.761C222.359 266.524 218.992 262.084 219.271 256.85C219.551 251.617 223.371 247.571 227.802 247.807C228.494 247.844 229.151 247.981 229.778 248.208L231.22 265.471Z" fill="#F9AE59"/>
</svg>
