<svg width="55" height="55" viewBox="0 0 55 55" fill="none" xmlns="http://www.w3.org/2000/svg">
<path fill-rule="evenodd" clip-rule="evenodd" d="M27.5 55C42.6878 55 55 42.6878 55 27.5C55 12.3122 42.6878 0 27.5 0C12.3122 0 0 12.3122 0 27.5C0 42.6878 12.3122 55 27.5 55Z" fill="white"/>
<path d="M35.7174 19H19.2826C18.0226 19.0015 17.0015 20.0133 17 21.2619V30.762C17.0015 32.0106 18.0226 33.0224 19.2826 33.0239H21.5652V37.5477C21.5652 37.7209 21.6651 37.8789 21.8223 37.9545C21.9795 38.0302 22.1665 38.0103 22.3039 37.9033L28.571 33.0239H35.7174C36.9774 33.0224 37.9985 32.0106 38 30.762V21.2619C37.9985 20.0133 36.9774 19.0015 35.7174 19Z" fill="#0F53FA"/>
</svg>
