<svg width="17" height="22" viewBox="0 0 17 22" fill="none" xmlns="http://www.w3.org/2000/svg">
<path d="M14.7657 15.726L11.443 13.9748C11.1296 13.8094 10.9348 13.4772 10.9348 13.1076V11.8679C11.0144 11.7652 11.0983 11.6483 11.1849 11.5192C11.6158 10.8775 11.9612 10.1633 12.2123 9.3929C12.7031 9.15567 13.0217 8.64417 13.0217 8.06667V6.6C13.0217 6.2469 12.8965 5.9048 12.6739 5.6375V3.6872C12.6934 3.48553 12.7699 2.28507 11.9463 1.2947C11.2318 0.4356 10.0725 0 8.5 0C6.92748 0 5.76817 0.4356 5.05374 1.29433C4.23009 2.2847 4.30661 3.48553 4.32609 3.6872V5.6375C4.10348 5.9048 3.97826 6.2469 3.97826 6.6V8.06667C3.97826 8.5129 4.17061 8.92907 4.49896 9.20663C4.81757 10.5365 5.48435 11.5386 5.71739 11.8602V13.0735C5.71739 13.4284 5.53374 13.754 5.23843 13.9242L2.13548 15.7084C1.12643 16.2888 0.5 17.4013 0.5 18.6127V19.8C0.5 21.5402 5.73304 22 8.5 22C11.267 22 16.5 21.5402 16.5 19.8V18.6842C16.5 17.4236 15.8353 16.2899 14.7657 15.726Z" fill="#969696"/>
</svg>
