<svg width="150" height="22" viewBox="0 0 150 22" fill="none" xmlns="http://www.w3.org/2000/svg">
<rect x="0.5" width="149" height="22" rx="5" fill="#F5F6FA"/>
<path d="M105.5 0H144.5C147.261 0 149.5 2.23858 149.5 5V17C149.5 19.7614 147.261 22 144.5 22H105.5V0Z" fill="#3DBE50"/>
<path d="M125.319 13.8193H123.973V16H122.407V13.8193H117.841V12.582L122.407 5.97852H123.973V12.4863H125.319V13.8193ZM122.407 12.4863V9.97754C122.407 9.08431 122.43 8.35286 122.476 7.7832H122.421C122.293 8.08398 122.093 8.44857 121.819 8.87695L119.338 12.4863H122.407ZM126.481 15.1455C126.481 14.8128 126.568 14.5576 126.741 14.3799C126.914 14.2021 127.165 14.1133 127.493 14.1133C127.826 14.1133 128.079 14.2067 128.252 14.3936C128.425 14.5758 128.512 14.8265 128.512 15.1455C128.512 15.4691 128.423 15.7266 128.245 15.918C128.072 16.1048 127.821 16.1982 127.493 16.1982C127.165 16.1982 126.914 16.1048 126.741 15.918C126.568 15.7311 126.481 15.4736 126.481 15.1455ZM136.817 11.0029C136.817 12.7393 136.537 14.029 135.977 14.8721C135.421 15.7152 134.568 16.1367 133.42 16.1367C132.308 16.1367 131.465 15.7015 130.891 14.8311C130.316 13.9606 130.029 12.6846 130.029 11.0029C130.029 9.23926 130.307 7.94043 130.863 7.10645C131.424 6.2679 132.276 5.84863 133.42 5.84863C134.536 5.84863 135.382 6.28613 135.956 7.16113C136.53 8.03613 136.817 9.31673 136.817 11.0029ZM131.656 11.0029C131.656 12.3656 131.795 13.3385 132.073 13.9219C132.356 14.5052 132.805 14.7969 133.42 14.7969C134.035 14.7969 134.484 14.5007 134.767 13.9082C135.054 13.3158 135.197 12.3473 135.197 11.0029C135.197 9.66309 135.054 8.69466 134.767 8.09766C134.484 7.49609 134.035 7.19531 133.42 7.19531C132.805 7.19531 132.356 7.48926 132.073 8.07715C131.795 8.66504 131.656 9.6403 131.656 11.0029Z" fill="white"/>
<path d="M71.0489 4.92705C71.3483 4.00574 72.6517 4.00574 72.9511 4.92705L74.0206 8.21885C74.1545 8.63087 74.5385 8.90983 74.9717 8.90983H78.4329C79.4016 8.90983 79.8044 10.1494 79.0207 10.7188L76.2205 12.7533C75.87 13.0079 75.7234 13.4593 75.8572 13.8713L76.9268 17.1631C77.2261 18.0844 76.1717 18.8506 75.388 18.2812L72.5878 16.2467C72.2373 15.9921 71.7627 15.9921 71.4122 16.2467L68.612 18.2812C67.8283 18.8506 66.7739 18.0844 67.0732 17.1631L68.1428 13.8713C68.2766 13.4593 68.13 13.0079 67.7795 12.7533L64.9793 10.7188C64.1956 10.1494 64.5984 8.90983 65.5671 8.90983H69.0283C69.4615 8.90983 69.8455 8.63087 69.9794 8.21885L71.0489 4.92705Z" fill="#F98600"/>
<path d="M51.5445 5.09555C51.8347 4.15547 53.1653 4.15547 53.4555 5.09555L54.4153 8.20477C54.5446 8.62393 54.9321 8.90983 55.3708 8.90983H58.5814C59.5376 8.90983 59.9484 10.1232 59.1888 10.7042L56.5047 12.757C56.172 13.0114 56.0331 13.4461 56.1566 13.8462L57.1608 17.0996C57.448 18.03 56.3713 18.7804 55.5978 18.1888L53.1075 16.2843C52.7489 16.01 52.2511 16.01 51.8925 16.2843L49.4022 18.1888C48.6287 18.7804 47.552 18.03 47.8392 17.0996L48.8434 13.8462C48.9669 13.4461 48.828 13.0114 48.4953 12.757L45.8112 10.7042C45.0516 10.1232 45.4624 8.90983 46.4186 8.90983H49.6292C50.0679 8.90983 50.4554 8.62393 50.5847 8.20477L51.5445 5.09555Z" fill="#F98600"/>
<path d="M32.5445 5.09555C32.8347 4.15547 34.1653 4.15547 34.4555 5.09555L35.4153 8.20477C35.5446 8.62393 35.9321 8.90983 36.3708 8.90983H39.5814C40.5376 8.90983 40.9484 10.1232 40.1888 10.7042L37.5047 12.757C37.172 13.0114 37.0331 13.4461 37.1566 13.8462L38.1608 17.0996C38.448 18.03 37.3713 18.7804 36.5978 18.1888L34.1075 16.2843C33.7489 16.01 33.2511 16.01 32.8925 16.2843L30.4022 18.1888C29.6287 18.7804 28.552 18.03 28.8392 17.0996L29.8434 13.8462C29.9669 13.4461 29.828 13.0114 29.4953 12.757L26.8112 10.7042C26.0516 10.1232 26.4624 8.90983 27.4186 8.90983H30.6292C31.0679 8.90983 31.4554 8.62393 31.5847 8.20477L32.5445 5.09555Z" fill="#F98600"/>
<path d="M13.5445 5.09555C13.8347 4.15547 15.1653 4.15547 15.4555 5.09555L16.4153 8.20477C16.5446 8.62393 16.9321 8.90983 17.3708 8.90983H20.5814C21.5376 8.90983 21.9484 10.1232 21.1888 10.7042L18.5047 12.757C18.172 13.0114 18.0331 13.4461 18.1566 13.8462L19.1608 17.0996C19.448 18.03 18.3713 18.7804 17.5978 18.1888L15.1075 16.2843C14.7489 16.01 14.2511 16.01 13.8925 16.2843L11.4022 18.1888C10.6287 18.7804 9.55197 18.03 9.83916 17.0996L10.8434 13.8462C10.9669 13.4461 10.828 13.0114 10.4953 12.757L7.81116 10.7042C7.05157 10.1232 7.46239 8.90983 8.41865 8.90983H11.6292C12.0679 8.90983 12.4554 8.62393 12.5847 8.20477L13.5445 5.09555Z" fill="#F98600"/>
<path d="M91.2611 5.31676C91.3337 5.08174 91.6663 5.08174 91.7389 5.31676L92.6986 8.42598C92.925 9.15951 93.6031 9.65983 94.3708 9.65983H97.5814C97.8204 9.65983 97.9231 9.96318 97.7332 10.1084L95.049 12.1612C94.4669 12.6064 94.2238 13.3672 94.44 14.0675L95.4442 17.3208C95.516 17.5534 95.2468 17.741 95.0534 17.5931L92.5631 15.6885C91.9356 15.2086 91.0644 15.2086 90.4369 15.6885L87.9466 17.5931C87.7532 17.741 87.484 17.5534 87.5558 17.3208L88.56 14.0675C88.7762 13.3672 88.5331 12.6064 87.951 12.1612L85.2668 10.1084C85.0769 9.96318 85.1796 9.65983 85.4186 9.65983H88.6292C89.3969 9.65983 90.075 9.15951 90.3014 8.42598L91.2611 5.31676Z" stroke="#F98600" stroke-width="1.5"/>
</svg>
