<svg width="55" height="55" viewBox="0 0 55 55" fill="none" xmlns="http://www.w3.org/2000/svg">
<path fill-rule="evenodd" clip-rule="evenodd" d="M27.5 55C42.6878 55 55 42.6878 55 27.5C55 12.3122 42.6878 0 27.5 0C12.3122 0 0 12.3122 0 27.5C0 42.6878 12.3122 55 27.5 55Z" fill="white"/>
<path d="M35.9375 31.8047C34.2705 31.8047 32.7892 32.6204 31.8662 33.8761L23.9198 29.7869C24.0531 29.3309 24.125 28.8486 24.125 28.3496C24.125 27.6738 23.9934 27.0285 23.7552 26.4378L32.0836 21.3992C33.0128 22.4974 34.3957 23.1953 35.9375 23.1953C38.729 23.1953 41 20.9085 41 18.0977C41 15.2868 38.729 13 35.9375 13C33.146 13 30.875 15.2868 30.875 18.0977C30.875 18.7473 30.9966 19.3688 31.2176 19.9407L22.8684 24.992C21.9398 23.9261 20.5779 23.252 19.0625 23.252C16.271 23.252 14 25.5388 14 28.3496C14 31.1605 16.271 33.4473 19.0625 33.4473C20.7569 33.4473 22.2593 32.6047 23.1787 31.3138L31.1021 35.3911C30.9545 35.8688 30.875 36.3764 30.875 36.9023C30.875 39.7132 33.146 42 35.9375 42C38.729 42 41 39.7132 41 36.9023C41 34.0915 38.729 31.8047 35.9375 31.8047ZM19.0625 31.748C17.2015 31.748 15.6875 30.2235 15.6875 28.3496C15.6875 26.4757 17.2015 24.9512 19.0625 24.9512C20.9235 24.9512 22.4375 26.4757 22.4375 28.3496C22.4375 30.2235 20.9235 31.748 19.0625 31.748Z" fill="#0F53FA"/>
</svg>
