<svg width="55" height="55" viewBox="0 0 55 55" fill="none" xmlns="http://www.w3.org/2000/svg">
<path fill-rule="evenodd" clip-rule="evenodd" d="M27.5 55C42.6878 55 55 42.6878 55 27.5C55 12.3122 42.6878 0 27.5 0C12.3122 0 0 12.3122 0 27.5C0 42.6878 12.3122 55 27.5 55Z" fill="white"/>
<path opacity="0.5" d="M37.0588 22H33.2941V32.3529C33.2941 32.8729 32.8729 33.2941 32.3529 33.2941H22V37.0588C22 37.5788 22.4212 38 22.9412 38H37.0588C37.5788 38 38 37.5788 38 37.0588V22.9412C38 22.4212 37.5788 22 37.0588 22Z" fill="#0F53FA"/>
<path d="M32.0588 33H17.9412C17.4212 33 17 32.5788 17 32.0588V17.9412C17 17.4212 17.4212 17 17.9412 17H32.0588C32.5788 17 33 17.4212 33 17.9412V32.0588C33 32.5788 32.5788 33 32.0588 33Z" fill="#0F53FA"/>
</svg>
