<svg width="31" height="30" viewBox="0 0 31 30" fill="none" xmlns="http://www.w3.org/2000/svg">
<path d="M21.4002 17.802C25.0734 12.7168 23.8449 5.67533 18.658 2.07502C13.4712 -1.52528 6.28885 -0.321739 2.61653 4.76429C-1.05579 9.84945 0.171825 16.89 5.35958 20.4904C9.06174 23.06 13.9564 23.2579 17.8613 20.9971L26.3458 29.2653C27.2619 30.2108 28.7861 30.2486 29.7505 29.3505C30.7148 28.4532 30.7535 26.9589 29.8382 26.0134C29.8093 25.9833 29.7812 25.9558 29.7505 25.9274L21.4002 17.802ZM12.0014 18.5728C7.90257 18.5736 4.57949 15.3183 4.57686 11.2999C4.57598 7.28149 7.89643 4.02358 11.9961 4.02186C16.0896 4.02014 19.4109 7.2703 19.4188 11.2835C19.4259 15.3028 16.1072 18.5659 12.0066 18.5728C12.0049 18.5728 12.004 18.5728 12.0014 18.5728Z" fill="#414853"/>
</svg>
